<svg width="199" height="31" viewBox="0 0 199 31" fill="none" xmlns="http://www.w3.org/2000/svg">
<path d="M107.568 5.86845V12.7112H107.627C108.724 11.2253 110.291 10.4819 112.328 10.4819C113.236 10.4819 114.096 10.6349 114.905 10.9401C115.715 11.2452 116.435 11.7054 117.063 12.3213C117.69 12.9365 118.182 13.7053 118.537 14.6284C118.892 15.5508 119.069 16.6165 119.069 17.8248C119.069 19.1867 118.827 20.4522 118.34 21.6213C117.853 22.791 117.095 23.7272 116.067 24.4319C115.039 25.136 113.763 25.4894 112.239 25.4894C110.038 25.4894 108.471 24.7667 107.537 23.3228H107.478V25.1153H103.299V5.86845H107.568ZM91.5312 10.0801C99.6528 10.0801 98.958 19.0701 98.958 19.0701H87.8402C88.29 20.8592 89.7845 22.0351 91.8438 22.0351C94.3246 22.0351 95.6614 20.4906 95.6614 20.4906L98.0217 22.9761C96.8067 24.2196 95.1749 25.3555 91.8079 25.3555C86.6015 25.3555 83.825 21.8043 83.825 18.0402C83.825 14.2761 85.908 10.0801 91.5312 10.0801ZM192.66 10.0736C196.154 10.0736 198.375 11.4465 198.375 11.4465L196.94 14.6189C192.29 12.1333 190.184 13.8852 190.184 14.7608C190.184 15.637 191.016 15.708 194.256 16.3239C197.495 16.9397 199 18.3354 199 20.5846C199 22.8339 197.125 25.3201 192.544 25.3201C187.961 25.3201 185.88 23.8045 185.88 23.8045L187.268 20.6556C190.855 22.9999 194.927 22.2414 194.927 20.8457C194.927 19.7979 193.573 19.5759 192.115 19.4004L191.488 19.3258C191.21 19.2919 190.934 19.2557 190.669 19.2117C188.818 18.9037 186.065 17.8863 186.065 14.9502C186.065 12.0149 189.166 10.0736 192.66 10.0736ZM172.202 4.8657V16.49L178.276 10.476H183.24L177.22 16.4363L183.83 25.3202H178.901L174.381 19.2469L172.202 21.4039V25.3202H168.141V4.8657H172.202ZM157.647 9.97947C160.528 9.97947 163.05 11.4571 164.444 13.6719L161.011 15.7524C160.368 14.4931 159.102 13.6368 157.647 13.6368C155.539 13.6368 153.829 15.4334 153.829 17.6496C153.829 19.865 155.539 21.6623 157.647 21.6623C159.035 21.6623 160.246 20.8818 160.915 19.7176L164.363 21.7498C162.954 23.895 160.474 25.3203 157.647 25.3203C153.257 25.3203 149.699 21.8855 149.699 17.6496C149.699 13.4129 153.257 9.97947 157.647 9.97947ZM138.774 9.97878C143.163 9.97878 146.723 13.4136 146.723 17.6489C146.723 21.8855 143.163 25.3196 138.774 25.3196C134.383 25.3196 130.826 21.8855 130.826 17.6489C130.826 13.4136 134.383 9.97878 138.774 9.97878ZM66.6063 10.4052V25.1784H62.1981V10.4052H66.6063ZM58.2398 5.93059V9.62372H48.3822V14.5245H57.0937V18.1825H48.3822V25.1781H43.9734V5.93059H58.2398ZM76.0141 12.2513C76.0141 12.2513 77.5761 9.72995 80.8038 10.1212V14.2401C80.8038 14.2401 77.2981 13.317 76.0141 17.0459V25.1776H71.8142V10.4051H75.8294L76.0141 12.1452V12.2513ZM126.624 4.7942V25.071H122.181V4.7942H126.624ZM111.044 13.728C108.607 13.728 107.389 15.2559 107.389 18.3132C107.389 19.4719 107.703 20.444 108.33 21.2293C108.958 22.0139 109.904 22.4066 111.169 22.4066C112.013 22.4066 112.698 22.18 113.224 21.7267C113.75 21.2727 114.122 20.7181 114.343 20.0616C114.564 19.4058 114.674 18.7507 114.674 18.0969C114.674 16.8404 114.385 15.7995 113.808 14.9707C113.23 14.142 112.308 13.728 111.044 13.728ZM138.774 13.6368C136.664 13.6368 134.955 15.4327 134.955 17.6489C134.955 19.8657 136.664 21.6623 138.774 21.6623C140.882 21.6623 142.591 19.8657 142.591 17.6489C142.591 15.4327 140.882 13.6368 138.774 13.6368ZM91.6002 13.2993C89.4523 13.2993 88.2582 14.664 87.855 16.442H95.0538C95.0187 15.9798 94.3077 13.2993 91.6002 13.2993ZM64.4023 3.44446C65.8324 3.44446 66.9933 4.54186 66.9933 5.89484C66.9933 7.24781 65.8324 8.34521 64.4023 8.34521C62.9714 8.34521 61.8105 7.24781 61.8105 5.89484C61.8105 4.54186 62.9714 3.44446 64.4023 3.44446Z" fill="black"/>
<path d="M29.241 0C29.905 0 30.4432 0.555167 30.4432 1.24V29.76C30.4432 30.4448 29.905 31 29.241 31H1.20224C0.538262 31 0 30.4448 0 29.76V1.24C0 0.555167 0.538262 0 1.20224 0H29.241ZM15.2215 8.61111L6.76509 22.3889H23.678L15.2215 8.61111Z" fill="black"/>
</svg>
