<svg width="13" height="12" viewBox="0 0 13 12" fill="none" xmlns="http://www.w3.org/2000/svg">
<path d="M12.9308 9.46167L10.7852 11.8333C10.7385 11.8852 10.6821 11.9268 10.6194 11.9554C10.5566 11.9841 10.4889 11.9992 10.4203 12H0.249186C0.20071 11.9997 0.153369 11.9848 0.112917 11.9572C0.0724649 11.9297 0.0406438 11.8905 0.0213207 11.8446C0.0019976 11.7987 -0.00399555 11.748 0.00406962 11.6987C0.0121348 11.6493 0.033911 11.6035 0.0667518 11.5667L2.21238 9.19167C2.25905 9.13978 2.31547 9.09824 2.3782 9.06958C2.44093 9.04093 2.50865 9.02576 2.57724 9.025H12.7484C12.7975 9.02472 12.8456 9.03936 12.8867 9.06711C12.9278 9.09485 12.9601 9.13447 12.9795 9.18102C12.999 9.22758 13.0047 9.27901 12.9961 9.32891C12.9874 9.37882 12.9647 9.42499 12.9308 9.46167ZM10.7852 4.67833C10.7387 4.62621 10.6823 4.58451 10.6195 4.55584C10.5568 4.52717 10.489 4.51213 10.4203 4.51167H0.249186C0.200709 4.51155 0.153257 4.52607 0.11267 4.55344C0.0720828 4.58081 0.0401305 4.61982 0.0207449 4.66569C0.00135924 4.71156 -0.00461403 4.76228 0.00356005 4.81161C0.0117341 4.86094 0.033699 4.90672 0.0667518 4.94333L2.21238 7.32167C2.25887 7.37379 2.31526 7.41549 2.37803 7.44416C2.44079 7.47283 2.50861 7.48787 2.57724 7.48833H12.7484C12.7968 7.48845 12.8443 7.47393 12.8849 7.44656C12.9255 7.41919 12.9574 7.38018 12.9768 7.33431C12.9962 7.28844 13.0022 7.23772 12.994 7.18839C12.9858 7.13906 12.9639 7.09328 12.9308 7.05667L10.7852 4.67833ZM0.249186 2.97167H10.4203C10.4889 2.97091 10.5566 2.95574 10.6194 2.92708C10.6821 2.89843 10.7385 2.85689 10.7852 2.805L12.9308 0.433333C12.9636 0.396521 12.9854 0.350654 12.9935 0.301306C13.0016 0.251959 12.9956 0.201255 12.9762 0.155357C12.9569 0.109459 12.9251 0.0703434 12.8846 0.0427637C12.8442 0.0151839 12.7968 0.000327549 12.7484 0L2.57724 0C2.50865 0.000761001 2.44093 0.0159304 2.3782 0.044584C2.31547 0.0732376 2.25905 0.114775 2.21238 0.166667L0.0667518 2.53833C0.033911 2.57515 0.0121348 2.62101 0.00406962 2.67036C-0.00399555 2.71971 0.0019976 2.77041 0.0213207 2.81631C0.0406438 2.86221 0.0724649 2.90132 0.112917 2.9289C0.153369 2.95648 0.20071 2.97134 0.249186 2.97167Z" fill="url(#paint0_linear_361_474)"/>
<defs>
<linearGradient id="paint0_linear_361_474" x1="1.09678" y1="12.2867" x2="12.1448" y2="0.222457" gradientUnits="userSpaceOnUse">
<stop offset="0.08" stop-color="#9945FF"/>
<stop offset="0.3" stop-color="#8752F3"/>
<stop offset="0.5" stop-color="#5497D5"/>
<stop offset="0.6" stop-color="#43B4CA"/>
<stop offset="0.72" stop-color="#28E0B9"/>
<stop offset="0.97" stop-color="#19FB9B"/>
</linearGradient>
</defs>
</svg>
