<svg width="57" height="56" viewBox="0 0 57 56" fill="none" xmlns="http://www.w3.org/2000/svg">
<mask id="mask0_329_943" style="mask-type:alpha" maskUnits="userSpaceOnUse" x="0" y="0" width="57" height="56">
<circle cx="28.5" cy="28" r="28" fill="#D9D9D9"/>
</mask>
<g mask="url(#mask0_329_943)">
<path fill-rule="evenodd" clip-rule="evenodd" d="M28.5 1.28247C13.7443 1.28247 1.78247 13.2443 1.78247 28C1.78247 42.7557 13.7443 54.7176 28.5 54.7176C43.2557 54.7176 55.2176 42.7557 55.2176 28C55.2176 13.2443 43.2557 1.28247 28.5 1.28247Z" fill="url(#paint0_radial_329_943)"/>
<g filter="url(#filter0_dddi_329_943)">
<path fill-rule="evenodd" clip-rule="evenodd" d="M28.5 0C13.0369 0 0.501477 12.5346 0.5 27.9973V28C0.5 43.464 13.036 56 28.5 56C43.964 56 56.5 43.464 56.5 28C56.5 12.536 43.964 0 28.5 0ZM28.5 1.28244C28.3561 1.28244 28.3306 1.49419 28.4685 1.5356C31.5364 2.45705 34.3501 4.28663 36.4665 6.83524C37.82 8.46518 39.019 10.2272 40.0434 12.0997C41.2351 14.278 42.1734 16.5747 42.8468 18.9448C42.8934 19.093 42.9369 19.2428 42.9774 19.3939C43.293 20.5745 43.543 21.7731 43.7264 22.984C43.9798 24.6384 44.1083 26.3151 44.1083 28C44.1083 29.6841 43.9799 31.36 43.7267 33.0138C43.5433 34.2255 43.2932 35.4247 42.9774 36.606C42.9369 36.7573 42.8934 36.907 42.8468 37.0553C42.1733 39.4253 41.235 41.722 40.0434 43.9003C39.019 45.7728 37.82 47.5348 36.4665 49.1647C34.3501 51.7134 31.5364 53.5429 28.4685 54.4644C28.3306 54.5058 28.356 54.7176 28.5 54.7176C43.2557 54.7176 55.2176 42.7557 55.2176 28C55.2176 13.2443 43.2557 1.28244 28.5 1.28244ZM39.5724 13.9769C41.4887 17.8844 42.6603 21 42.6603 28C42.6603 36.4037 39.7158 41.7666 39.5774 42.0142C39.5729 42.0221 39.5705 42.0268 39.5664 42.0349C39.5141 42.1384 39.1301 42.8975 38.9183 43.2848C37.9335 45.0848 36.781 46.7786 35.4799 48.3455C31.4644 53.181 24.7666 55.1817 18.939 52.9482C15.471 51.6191 12.2847 49.569 9.60792 46.8922C4.5974 41.8817 1.78244 35.0859 1.78244 28C1.78244 20.9141 4.5974 14.1183 9.60792 9.1078C12.2847 6.43098 15.471 4.38084 18.939 3.05175C24.7666 0.8183 31.4644 2.81896 35.4799 7.65453C36.781 9.22138 37.9335 10.9151 38.9183 12.7152C39.1459 13.1314 39.328 13.4786 39.5724 13.9769Z" fill="url(#paint1_radial_329_943)"/>
<path d="M32.6429 24.625C33.6655 24.6239 34.6459 24.2196 35.369 23.501C36.0921 22.7823 36.4989 21.808 36.5 20.7917V17.9167H33.6071C32.6199 17.9183 31.6712 18.298 30.9584 18.977C30.4589 18.0761 29.7255 17.3247 28.8346 16.8011C27.9437 16.2776 26.9279 16.0009 25.8929 16H23V18.875C23.0017 20.3995 23.6118 21.861 24.6965 22.939C25.7811 24.017 27.2518 24.6233 28.7857 24.625H29.75V37.0833H18.1786V32.2917H19.1429C20.1655 32.2905 21.1459 31.8863 21.869 31.1676C22.5921 30.449 22.9989 29.4746 23 28.4583V25.5833H20.1071C19.1199 25.5849 18.1712 25.9647 17.4584 26.6436C16.9589 25.7427 16.2255 24.9914 15.3346 24.4678C14.4437 23.9442 13.4279 23.6676 12.3929 23.6667H9.5V26.5417C9.50168 28.0661 10.1118 29.5277 11.1965 30.6057C12.2811 31.6837 13.7518 32.29 15.2857 32.2917H16.25V37.0833H3L3.5 38.5H41.5L42 37.0833H31.6786V24.625H32.6429ZM31.6786 21.75C31.6791 21.2418 31.8824 20.7546 32.244 20.3953C32.6056 20.0359 33.0958 19.8338 33.6071 19.8333H34.5714V20.7917C34.5709 21.2998 34.3676 21.7871 34.006 22.1464C33.6444 22.5057 33.1542 22.7078 32.6429 22.7083H31.6786V21.75ZM18.1786 29.4167C18.1791 28.9085 18.3824 28.4213 18.744 28.0619C19.1056 27.7026 19.5958 27.5005 20.1071 27.5H21.0714V28.4583C21.0709 28.9665 20.8676 29.4537 20.506 29.8131C20.1444 30.1724 19.6542 30.3745 19.1429 30.375H18.1786V29.4167ZM16.25 30.375H15.2857C14.2631 30.3739 13.2827 29.9696 12.5596 29.251C11.8365 28.5323 11.4297 27.558 11.4286 26.5417V25.5833H12.3929C13.4155 25.5845 14.3959 25.9887 15.119 26.7074C15.8421 27.426 16.2489 28.4004 16.25 29.4167V30.375ZM29.75 22.7083H28.7857C27.7631 22.7072 26.7827 22.303 26.0596 21.5843C25.3365 20.8657 24.9297 19.8913 24.9286 18.875V17.9167H25.8929C26.9155 17.9178 27.8959 18.322 28.619 19.0407C29.3421 19.7593 29.7489 20.7337 29.75 21.75V22.7083Z" fill="url(#paint2_radial_329_943)"/>
</g>
</g>
<defs>
<filter id="filter0_dddi_329_943" x="-2.70611" y="-3.20611" width="62.4122" height="62.4122" filterUnits="userSpaceOnUse" color-interpolation-filters="sRGB">
<feFlood flood-opacity="0" result="BackgroundImageFix"/>
<feColorMatrix in="SourceAlpha" type="matrix" values="0 0 0 0 0 0 0 0 0 0 0 0 0 0 0 0 0 0 127 0" result="hardAlpha"/>
<feOffset/>
<feGaussianBlur stdDeviation="1.60305"/>
<feComposite in2="hardAlpha" operator="out"/>
<feColorMatrix type="matrix" values="0 0 0 0 0 0 0 0 0 0 0 0 0 0 0 0 0 0 0.3 0"/>
<feBlend mode="normal" in2="BackgroundImageFix" result="effect1_dropShadow_329_943"/>
<feColorMatrix in="SourceAlpha" type="matrix" values="0 0 0 0 0 0 0 0 0 0 0 0 0 0 0 0 0 0 127 0" result="hardAlpha"/>
<feOffset dy="0.748092"/>
<feGaussianBlur stdDeviation="0.534351"/>
<feComposite in2="hardAlpha" operator="out"/>
<feColorMatrix type="matrix" values="0 0 0 0 0 0 0 0 0 0 0 0 0 0 0 0 0 0 0.6 0"/>
<feBlend mode="normal" in2="effect1_dropShadow_329_943" result="effect2_dropShadow_329_943"/>
<feColorMatrix in="SourceAlpha" type="matrix" values="0 0 0 0 0 0 0 0 0 0 0 0 0 0 0 0 0 0 127 0" result="hardAlpha"/>
<feOffset dy="-0.320611"/>
<feGaussianBlur stdDeviation="0.748092"/>
<feComposite in2="hardAlpha" operator="out"/>
<feColorMatrix type="matrix" values="0 0 0 0 0 0 0 0 0 0 0 0 0 0 0 0 0 0 0.31 0"/>
<feBlend mode="normal" in2="effect2_dropShadow_329_943" result="effect3_dropShadow_329_943"/>
<feBlend mode="normal" in="SourceGraphic" in2="effect3_dropShadow_329_943" result="shape"/>
<feColorMatrix in="SourceAlpha" type="matrix" values="0 0 0 0 0 0 0 0 0 0 0 0 0 0 0 0 0 0 127 0" result="hardAlpha"/>
<feOffset dy="0.21374"/>
<feComposite in2="hardAlpha" operator="arithmetic" k2="-1" k3="1"/>
<feColorMatrix type="matrix" values="0 0 0 0 1 0 0 0 0 1 0 0 0 0 1 0 0 0 0.3 0"/>
<feBlend mode="normal" in2="shape" result="effect4_innerShadow_329_943"/>
</filter>
<radialGradient id="paint0_radial_329_943" cx="0" cy="0" r="1" gradientUnits="userSpaceOnUse" gradientTransform="translate(41 17.5) rotate(125.754) scale(46.2088 46.012)">
<stop stop-color="white"/>
<stop offset="1" stop-color="#B2BCCB"/>
</radialGradient>
<radialGradient id="paint1_radial_329_943" cx="0" cy="0" r="1" gradientUnits="userSpaceOnUse" gradientTransform="translate(22.4084 2.7252) rotate(78.8612) scale(54.2977 53.6048)">
<stop offset="0.0708536" stop-color="white"/>
<stop offset="0.651149" stop-color="#63696B"/>
<stop offset="1" stop-color="#6F777B"/>
</radialGradient>
<radialGradient id="paint2_radial_329_943" cx="0" cy="0" r="1" gradientUnits="userSpaceOnUse" gradientTransform="translate(22.4084 2.7252) rotate(78.8612) scale(54.2977 53.6048)">
<stop offset="0.0708536" stop-color="white"/>
<stop offset="0.651149" stop-color="#63696B"/>
<stop offset="1" stop-color="#6F777B"/>
</radialGradient>
</defs>
</svg>
