<svg width="224" height="224" viewBox="0 0 224 224" fill="none" xmlns="http://www.w3.org/2000/svg">
<mask id="mask0_329_1562" style="mask-type:alpha" maskUnits="userSpaceOnUse" x="0" y="0" width="224" height="224">
<circle cx="112" cy="112" r="112" fill="#D9D9D9"/>
</mask>
<g mask="url(#mask0_329_1562)">
<g opacity="0.3">
<path fill-rule="evenodd" clip-rule="evenodd" d="M112 0C50.1477 0 0.0059072 50.1382 0 111.989V112C0 173.856 50.1441 224 112 224C173.856 224 224 173.856 224 112C224 50.1441 173.856 0 112 0ZM112 5.12977C111.424 5.12977 111.323 5.97677 111.874 6.1424C124.146 9.82818 135.401 17.1465 143.866 27.341C149.28 33.8607 154.076 40.9087 158.173 48.3987C162.94 57.1122 166.693 66.2989 169.387 75.7792C169.574 76.3721 169.748 76.9711 169.909 77.5758C171.172 82.2981 172.172 87.0922 172.906 91.936C173.919 98.5538 174.433 105.26 174.433 112C174.433 118.736 173.92 125.44 172.907 132.055C172.173 136.902 171.173 141.699 169.909 146.424C169.748 147.029 169.573 147.628 169.387 148.221C166.693 157.701 162.94 166.888 158.173 175.601C154.076 183.091 149.28 190.139 143.866 196.659C135.401 206.853 124.146 214.172 111.874 217.858C111.323 218.023 111.424 218.87 112 218.87C171.023 218.87 218.87 171.023 218.87 112C218.87 52.9772 171.023 5.12977 112 5.12977ZM156.289 55.9075C163.955 71.5376 168.641 84 168.641 112C168.641 145.615 156.863 167.067 156.31 168.057C156.292 168.088 156.282 168.107 156.266 168.14C156.056 168.554 154.521 171.59 153.673 173.139C149.734 180.339 145.124 187.114 139.919 193.382C123.858 212.724 97.0666 220.727 73.7559 211.793C59.8841 206.477 47.139 198.276 36.4317 187.569C16.3896 167.527 5.12978 140.344 5.12978 112C5.12978 83.6562 16.3896 56.4733 36.4317 36.4312C47.139 25.7239 59.8841 17.5233 73.7559 12.207C97.0666 3.2732 123.858 11.2758 139.919 30.6181C145.124 36.8855 149.734 43.6606 153.673 50.8607C154.584 52.5254 155.312 53.9143 156.289 55.9075Z" fill="white"/>
<path d="M128.571 98.5C132.662 98.4954 136.584 96.8785 139.476 94.0039C142.368 91.1293 143.995 87.2319 144 83.1667V71.6667H132.429C128.479 71.6731 124.685 73.1921 121.834 75.9079C119.836 72.3043 116.902 69.2989 113.338 67.2046C109.775 65.1103 105.711 64.0037 101.571 64H90V75.5C90.0067 81.5979 92.4472 87.4442 96.7858 91.7561C101.124 96.0679 107.007 98.4933 113.143 98.5H117V148.333H70.7143V129.167H74.5714C78.6619 129.162 82.5836 127.545 85.476 124.671C88.3684 121.796 89.9954 117.899 90 113.833V102.333H78.4286C74.4795 102.34 70.6848 103.859 67.8338 106.575C65.8357 102.971 62.9021 99.9655 59.3385 97.8712C55.7749 95.7769 51.7115 94.6704 47.5714 94.6667H36V106.167C36.0067 112.265 38.4472 118.111 42.7858 122.423C47.1245 126.735 53.0071 129.16 59.1429 129.167H63V148.333H10L12 154H164L166 148.333H124.714V98.5H128.571ZM124.714 87C124.716 84.9673 125.53 83.0184 126.976 81.5811C128.422 80.1437 130.383 79.3354 132.429 79.3333H136.286V83.1667C136.284 85.1994 135.47 87.1482 134.024 88.5856C132.578 90.0229 130.617 90.8313 128.571 90.8333H124.714V87ZM70.7143 117.667C70.7163 115.634 71.5297 113.685 72.976 112.248C74.4223 110.81 76.3832 110.002 78.4286 110H82.2857V113.833C82.2837 115.866 81.4703 117.815 80.024 119.252C78.5777 120.69 76.6168 121.498 74.5714 121.5H70.7143V117.667ZM63 121.5H59.1429C55.0524 121.495 51.1307 119.879 48.2383 117.004C45.3459 114.129 43.7189 110.232 43.7143 106.167V102.333H47.5714C51.6619 102.338 55.5836 103.955 58.476 106.829C61.3684 109.704 62.9954 113.601 63 117.667V121.5ZM117 90.8333H113.143C109.052 90.8288 105.131 89.2118 102.238 86.3373C99.3459 83.4627 97.7189 79.5653 97.7143 75.5V71.6667H101.571C105.662 71.6712 109.584 73.2882 112.476 76.1627C115.368 79.0373 116.995 82.9347 117 87V90.8333Z" fill="white"/>
</g>
</g>
</svg>
